<svg width="64" height="64" viewBox="0 0 64 64" fill="none" xmlns="http://www.w3.org/2000/svg">
<path fill-rule="evenodd" clip-rule="evenodd" d="M36.8672 19.7351C40.7996 19.7351 44.0579 22.9513 44.0579 26.9258C44.0579 30.9002 40.798 34.1051 36.8672 34.1051C32.9365 34.1051 29.6879 30.8954 29.6879 26.9258C29.6879 22.9561 32.9349 19.7351 36.8672 19.7351ZM57.6502 51.2474H63.8817V49.3776L59.2203 49.4278V49.0908L63.8817 46.7479V45.1649L59.2203 42.8221V42.5045L63.8817 42.5547V40.6849H57.6502V44.1053L61.6944 45.9621L57.6502 47.8124V51.2474ZM57.6486 39.6123H63.8817V32.6825H62.3862V37.7426H61.3946V32.9693H60.0239V37.7426H59.1198V32.7198H57.6486V39.6123ZM57.6502 31.7557H63.8817V29.7742H57.6502V31.7557ZM57.6502 28.6837H63.8817V26.7459L59.2332 26.7961V26.5904L63.8817 23.3126V20.017H57.6502V21.9483L62.2923 21.9046V22.0974L57.6502 25.3557V28.6837ZM57.6502 18.9314H63.8817V12.7372H62.2923V16.9434H57.6502V18.9314ZM14.7573 19.6541C18.7334 19.6541 22.0354 22.9075 22.0354 26.9258C22.0354 30.944 18.7334 34.191 14.7573 34.191C10.7812 34.191 7.48557 30.9375 7.48557 26.9258C7.48557 22.914 10.7876 19.6541 14.7573 19.6541ZM0 51.2474V26.882C0 19.6103 5.67089 11.8768 14.7573 12C21.0568 12.0875 23.8501 14.9975 25.7944 16.7733C27.1522 15.5095 30.6163 11.9449 36.7425 12C45.6231 12.0745 51.5548 18.9363 51.5435 26.9241L51.4997 51.2458H44.0595V39.8554C39.3608 42.1804 34.5 42.5223 29.6458 40.0239V51.2474H21.9496V40.0239C17.0013 42.5223 12.0531 42.3101 7.48557 40.0239V51.2474H0Z" fill="#D23830"/>
</svg>
